<svg xmlns="http://www.w3.org/2000/svg" viewBox="0 0 320 80" width="320" height="80">
  <defs>
    <linearGradient id="hGrad" x1="0%" y1="0%" x2="100%" y2="100%">
      <stop offset="0%" stop-color="#1d4ed8"/>
      <stop offset="100%" stop-color="#1e3a8a"/>
    </linearGradient>
  </defs>
  <!-- أيقونة المباني -->
  <g transform="translate(10, 10)">
    <rect x="0" y="15" width="25" height="45" fill="none" stroke="url(#hGrad)" stroke-width="3.5" stroke-linejoin="round"/>
    <rect x="25" y="25" width="25" height="35" fill="none" stroke="url(#hGrad)" stroke-width="3.5" stroke-linejoin="round"/>
    <rect x="5" y="22" width="6" height="6" fill="url(#hGrad)"/>
    <rect x="14" y="22" width="6" height="6" fill="url(#hGrad)"/>
    <rect x="5" y="34" width="6" height="6" fill="url(#hGrad)"/>
    <rect x="14" y="34" width="6" height="6" fill="url(#hGrad)"/>
    <rect x="5" y="46" width="6" height="6" fill="url(#hGrad)"/>
    <rect x="14" y="46" width="6" height="6" fill="url(#hGrad)"/>
    <rect x="30" y="34" width="6" height="6" fill="url(#hGrad)"/>
    <rect x="39" y="34" width="6" height="6" fill="url(#hGrad)"/>
    <rect x="30" y="46" width="6" height="6" fill="url(#hGrad)"/>
    <rect x="39" y="46" width="6" height="6" fill="url(#hGrad)"/>
  </g>
  <!-- النص العربي -->
  <text x="65" y="40" font-family="Cairo, Tajawal, 'Segoe UI', sans-serif" font-size="22" font-weight="900" fill="#1d4ed8">مكتب أضواء الفيصلية</text>
  <text x="65" y="62" font-family="'Segoe UI', Arial, sans-serif" font-size="11" font-weight="700" fill="#1d4ed8" letter-spacing="1.2">ADWAA AL-FAISALEAH OFFICE</text>
</svg>
